ply
format ascii 1.0
comment Created by Blender 2.80 (sub 75) - www.blender.org, source file: ''
element vertex 36
property float x
property float y
property float z
property float nx
property float ny
property float nz
property float s
property float t
element face 20
property list uchar uint vertex_indices
end_header
0.250000 0.062500 0.125000 0.000000 1.000000 0.000000 0.316296 0.479101
0.250000 0.062500 -0.250000 0.000000 1.000000 0.000000 0.316296 0.437891
-0.250000 0.062500 -0.250000 0.000000 1.000000 0.000000 0.371244 0.437891
-0.250000 0.062500 0.125000 -0.000000 1.000000 0.000000 0.371244 0.479101
0.062500 0.062500 0.312500 0.000000 1.000000 -0.000000 0.336902 0.499707
-0.062500 0.062500 0.312500 -0.000000 1.000000 0.000000 0.350639 0.499707
0.250000 0.000000 0.125000 1.000000 0.000000 -0.000000 0.919383 0.749832
0.250000 0.000000 -0.250000 1.000000 0.000000 -0.000000 0.875349 0.749832
0.250000 0.062500 -0.250000 1.000000 0.000000 -0.000000 0.875349 0.742492
0.250000 0.062500 0.125000 1.000000 -0.000000 0.000000 0.919383 0.742492
0.250000 0.000000 -0.250000 0.000000 0.000000 -1.000000 0.933967 0.749830
-0.250000 0.000000 -0.250000 0.000000 0.000000 -1.000000 0.875254 0.749830
-0.250000 0.062500 -0.250000 0.000000 0.000000 -1.000000 0.875254 0.742491
0.250000 0.062500 -0.250000 0.000000 0.000000 -1.000000 0.933967 0.742491
-0.250000 0.000000 -0.250000 -1.000000 -0.000000 -0.000000 0.919299 0.749858
-0.250000 0.000000 0.125000 -1.000000 -0.000000 -0.000000 0.875265 0.749858
-0.250000 0.062500 0.125000 -1.000000 -0.000000 -0.000000 0.875265 0.742519
-0.250000 0.062500 -0.250000 -1.000000 0.000000 0.000000 0.919299 0.742519
0.062500 0.000000 0.312500 0.707107 0.000000 0.707107 0.906409 0.749748
0.250000 0.000000 0.125000 0.707107 0.000000 0.707107 0.875272 0.749748
0.250000 0.062500 0.125000 0.707107 0.000000 0.707107 0.875272 0.742409
0.062500 0.062500 0.312500 0.707107 -0.000000 0.707107 0.906409 0.742409
-0.250000 0.000000 0.125000 -0.707107 0.000000 0.707107 0.906428 0.749808
-0.062500 0.000000 0.312500 -0.707107 0.000000 0.707107 0.875291 0.749808
-0.062500 0.062500 0.312500 -0.707107 0.000000 0.707107 0.875291 0.742469
-0.250000 0.062500 0.125000 -0.707107 0.000000 0.707107 0.906428 0.742469
-0.062500 0.000000 0.312500 0.000000 0.000000 1.000000 0.889922 0.749783
0.062500 0.000000 0.312500 0.000000 0.000000 1.000000 0.875244 0.749783
0.062500 0.062500 0.312500 0.000000 0.000000 1.000000 0.875244 0.742444
-0.062500 0.062500 0.312500 0.000000 0.000000 1.000000 0.889922 0.742444
-0.250000 0.000000 0.125000 0.000000 -1.000000 0.000000 0.371248 0.479105
-0.250000 0.000000 -0.250000 0.000000 -1.000000 0.000000 0.371248 0.437894
0.250000 0.000000 -0.250000 0.000000 -1.000000 0.000000 0.316300 0.437894
0.250000 0.000000 0.125000 -0.000000 -1.000000 -0.000000 0.316300 0.479105
0.062500 0.000000 0.312500 -0.000000 -1.000000 -0.000000 0.336906 0.499710
-0.062500 0.000000 0.312500 0.000000 -1.000000 -0.000000 0.350643 0.499710
3 0 1 2
3 0 2 3
3 4 0 3
3 4 3 5
3 6 7 8
3 8 9 6
3 10 11 12
3 12 13 10
3 14 15 16
3 16 17 14
3 18 19 20
3 20 21 18
3 22 23 24
3 24 25 22
3 26 27 28
3 28 29 26
3 30 31 32
3 30 32 33
3 30 33 34
3 30 34 35
