ply
format ascii 1.0
comment Created by Blender 2.80 (sub 75) - www.blender.org, source file: ''
element vertex 24
property float x
property float y
property float z
property float nx
property float ny
property float nz
property float s
property float t
element face 12
property list uchar uint vertex_indices
end_header
0.312500 0.062500 0.312500 0.000000 1.000000 0.000000 0.562649 0.187369
0.312500 0.062500 -0.312500 0.000000 1.000000 0.000000 0.562649 0.128930
-0.312500 0.062500 -0.312500 0.000000 1.000000 0.000000 0.621064 0.128930
-0.312500 0.062500 0.312500 -0.000000 1.000000 0.000000 0.621064 0.187369
0.312500 0.000000 0.312500 1.000000 0.000000 -0.000000 0.933276 0.743299
0.312500 0.000000 -0.312500 1.000000 0.000000 -0.000000 0.875258 0.743299
0.312500 0.062500 -0.312500 1.000000 0.000000 -0.000000 0.875258 0.749121
0.312500 0.062500 0.312500 1.000000 -0.000000 0.000000 0.933276 0.749121
0.312500 0.000000 -0.312500 0.000000 0.000000 -1.000000 0.933373 0.743207
-0.312500 0.000000 -0.312500 0.000000 0.000000 -1.000000 0.874996 0.743207
-0.312500 0.062500 -0.312500 0.000000 0.000000 -1.000000 0.874996 0.748976
0.312500 0.062500 -0.312500 0.000000 0.000000 -1.000000 0.933373 0.748976
-0.312500 0.000000 -0.312500 -1.000000 -0.000000 -0.000000 0.933368 0.743356
-0.312500 0.000000 0.312500 -1.000000 -0.000000 -0.000000 0.875247 0.743356
-0.312500 0.062500 0.312500 -1.000000 -0.000000 -0.000000 0.875247 0.749055
-0.312500 0.062500 -0.312500 -1.000000 0.000000 0.000000 0.933368 0.749055
-0.312500 0.000000 0.312500 0.000000 -1.000000 0.000000 0.937500 0.750010
-0.312500 0.000000 -0.312500 0.000000 -1.000000 0.000000 0.937500 0.687553
0.312500 0.000000 -0.312500 0.000000 -1.000000 0.000000 0.999900 0.687553
0.312500 0.000000 0.312500 -0.000000 -1.000000 -0.000000 0.999900 0.750010
0.312500 0.062500 0.312500 0.000000 0.000000 1.000000 0.875158 0.749024
-0.312500 0.062500 0.312500 0.000000 0.000000 1.000000 0.933453 0.749024
-0.312500 0.000000 0.312500 0.000000 0.000000 1.000000 0.933453 0.743185
0.312500 0.000000 0.312500 0.000000 -0.000000 1.000000 0.875158 0.743185
3 0 1 2
3 0 2 3
3 4 5 6
3 6 7 4
3 8 9 10
3 10 11 8
3 12 13 14
3 14 15 12
3 16 17 18
3 16 18 19
3 20 21 22
3 20 22 23
