ply
format ascii 1.0
comment Created by Blender 2.80 (sub 75) - www.blender.org, source file: ''
element vertex 18
property float x
property float y
property float z
property float nx
property float ny
property float nz
property float s
property float t
element face 8
property list uchar uint vertex_indices
end_header
0.250000 0.062500 -0.187500 -0.000000 1.000000 0.000000 0.375692 0.313526
-0.250000 0.062500 -0.187500 -0.000000 1.000000 0.000000 0.436879 0.313526
0.000000 0.062500 0.250000 -0.000000 1.000000 0.000000 0.406285 0.361116
0.250000 0.000000 -0.187500 0.000000 0.000000 -1.000000 0.937177 0.702866
-0.250000 0.000000 -0.187500 0.000000 0.000000 -1.000000 0.875220 0.702866
-0.250000 0.062500 -0.187500 0.000000 0.000000 -1.000000 0.875220 0.695054
0.250000 0.062500 -0.187500 0.000000 0.000000 -1.000000 0.937177 0.695054
-0.250000 0.000000 -0.187500 -0.868243 0.000000 0.496139 0.929908 0.722397
0.000000 0.000000 0.250000 -0.868243 0.000000 0.496139 0.875220 0.722397
0.000000 0.062500 0.250000 -0.868243 0.000000 0.496139 0.875220 0.714585
-0.250000 0.062500 -0.187500 -0.868243 0.000000 0.496139 0.929908 0.714585
0.000000 0.000000 0.250000 0.868243 0.000000 0.496139 0.929908 0.710679
0.250000 0.000000 -0.187500 0.868243 0.000000 0.496139 0.875220 0.710679
0.250000 0.062500 -0.187500 0.868243 0.000000 0.496139 0.875220 0.702866
0.000000 0.062500 0.250000 0.868243 -0.000000 0.496139 0.929908 0.702866
0.000000 0.000000 0.250000 0.000000 -1.000000 0.000000 0.406284 0.361110
-0.250000 0.000000 -0.187500 0.000000 -1.000000 0.000000 0.375691 0.313521
0.250000 0.000000 -0.187500 0.000000 -1.000000 0.000000 0.436877 0.313521
3 0 1 2
3 3 4 5
3 5 6 3
3 7 8 9
3 9 10 7
3 11 12 13
3 13 14 11
3 15 16 17
