ply
format ascii 1.0
comment Created by Blender 2.80 (sub 75) - www.blender.org, source file: ''
element vertex 24
property float x
property float y
property float z
property float nx
property float ny
property float nz
property float s
property float t
element face 12
property list uchar uint vertex_indices
end_header
0.312500 0.062500 0.312500 0.000000 1.000000 0.000000 0.562748 0.499918
0.312500 0.062500 -0.312500 0.000000 1.000000 0.000000 0.562748 0.441430
-0.312500 0.062500 -0.312500 0.000000 1.000000 0.000000 0.621070 0.441430
-0.312500 0.062500 0.312500 -0.000000 1.000000 0.000000 0.621070 0.499918
0.312500 0.000000 0.312500 1.000000 0.000000 -0.000000 0.936975 0.742481
0.312500 0.000000 -0.312500 1.000000 0.000000 -0.000000 0.875314 0.742481
0.312500 0.062500 -0.312500 1.000000 0.000000 -0.000000 0.875314 0.749787
0.312500 0.062500 0.312500 1.000000 -0.000000 0.000000 0.936975 0.749787
0.312500 0.000000 -0.312500 0.000000 0.000000 -1.000000 0.937079 0.742366
-0.312500 0.000000 -0.312500 0.000000 0.000000 -1.000000 0.875037 0.742366
-0.312500 0.062500 -0.312500 0.000000 0.000000 -1.000000 0.875037 0.749605
0.312500 0.062500 -0.312500 0.000000 0.000000 -1.000000 0.937079 0.749605
-0.312500 0.000000 -0.312500 -1.000000 -0.000000 -0.000000 0.937074 0.742552
-0.312500 0.000000 0.312500 -1.000000 -0.000000 -0.000000 0.875303 0.742552
-0.312500 0.062500 0.312500 -1.000000 -0.000000 -0.000000 0.875303 0.749704
-0.312500 0.062500 -0.312500 -1.000000 0.000000 0.000000 0.937074 0.749704
-0.312500 0.000000 0.312500 0.000000 -1.000000 0.000000 0.937500 0.750010
-0.312500 0.000000 -0.312500 0.000000 -1.000000 0.000000 0.937500 0.687553
0.312500 0.000000 -0.312500 0.000000 -1.000000 0.000000 0.999900 0.687553
0.312500 0.000000 0.312500 -0.000000 -1.000000 -0.000000 0.999900 0.750010
0.312500 0.062500 0.312500 0.000000 0.000000 1.000000 0.875209 0.749664
-0.312500 0.062500 0.312500 0.000000 0.000000 1.000000 0.937164 0.749664
-0.312500 0.000000 0.312500 0.000000 0.000000 1.000000 0.937164 0.742338
0.312500 0.000000 0.312500 0.000000 -0.000000 1.000000 0.875209 0.742338
3 0 1 2
3 0 2 3
3 4 5 6
3 6 7 4
3 8 9 10
3 10 11 8
3 12 13 14
3 14 15 12
3 16 17 18
3 16 18 19
3 20 21 22
3 20 22 23
