ply
format ascii 1.0
comment Created by Blender 2.80 (sub 75) - www.blender.org, source file: ''
element vertex 45
property float x
property float y
property float z
property float nx
property float ny
property float nz
property float s
property float t
element face 30
property list uchar uint vertex_indices
end_header
0.437500 0.062500 0.437500 0.000000 1.000000 0.000000 0.500071 0.124974
0.437500 0.062500 -0.437500 0.000000 1.000000 0.000000 0.500071 0.066433
-0.437500 0.062500 -0.437500 0.000000 1.000000 0.000000 0.558569 0.066433
-0.437500 0.062500 0.437500 -0.000000 1.000000 0.000000 0.558569 0.124974
0.437500 0.000000 0.437500 1.000000 0.000000 -0.000000 0.933369 0.746200
0.437500 0.000000 -0.437500 1.000000 0.000000 -0.000000 0.875305 0.746200
0.437500 0.062500 -0.437500 1.000000 0.000000 -0.000000 0.875305 0.749934
0.437500 0.062500 0.437500 1.000000 -0.000000 0.000000 0.933369 0.749934
0.437500 0.000000 -0.437500 0.000000 0.000000 -1.000000 0.933467 0.746140
-0.437500 0.000000 -0.437500 0.000000 0.000000 -1.000000 0.875043 0.746140
-0.437500 0.062500 -0.437500 0.000000 0.000000 -1.000000 0.875043 0.749840
0.437500 0.062500 -0.437500 0.000000 0.000000 -1.000000 0.933467 0.749840
-0.437500 0.000000 -0.437500 -1.000000 -0.000000 -0.000000 0.933462 0.746236
-0.437500 0.000000 0.437500 -1.000000 -0.000000 -0.000000 0.875294 0.746236
-0.437500 0.062500 0.437500 -1.000000 -0.000000 -0.000000 0.875294 0.749891
-0.437500 0.062500 -0.437500 -1.000000 0.000000 0.000000 0.933462 0.749891
-0.437500 0.000000 0.437500 0.000000 -1.000000 0.000000 0.937500 0.750010
-0.437500 0.000000 -0.437500 0.000000 -1.000000 0.000000 0.937500 0.687553
0.437500 0.000000 -0.437500 0.000000 -1.000000 0.000000 0.999900 0.687553
0.437500 0.000000 0.437500 -0.000000 -1.000000 -0.000000 0.999900 0.750010
0.437500 0.062500 0.437500 0.000000 0.000000 1.000000 0.875205 0.749871
-0.437500 0.062500 0.437500 0.000000 0.000000 1.000000 0.933547 0.749871
-0.437500 0.000000 0.437500 0.000000 0.000000 1.000000 0.933547 0.746126
0.437500 0.000000 0.437500 0.000000 -0.000000 1.000000 0.875205 0.746126
-0.373679 0.063177 0.000000 -0.813074 0.582110 0.000000 0.875268 0.687664
-0.167227 0.117965 0.289646 -0.280129 0.828272 0.485214 0.886213 0.691286
-0.334454 0.117965 0.000000 -0.560259 0.828272 0.000000 0.875268 0.691286
-0.186839 0.063177 0.323615 -0.406537 0.582110 0.704154 0.886213 0.687664
0.167227 0.117965 0.289646 0.280129 0.828272 0.485214 0.895379 0.691286
0.186839 0.063177 0.323615 0.406537 0.582110 0.704154 0.895379 0.687664
0.334454 0.117965 -0.000000 0.560259 0.828272 0.000000 0.906323 0.691286
0.373679 0.063177 -0.000000 0.813074 0.582110 0.000000 0.906323 0.687664
0.167227 0.117965 -0.289646 0.280129 0.828272 -0.485214 0.917267 0.691286
0.186839 0.063177 -0.323615 0.406537 0.582110 -0.704154 0.917267 0.687664
-0.167227 0.117965 -0.289646 -0.280129 0.828272 -0.485214 0.926434 0.691286
-0.186839 0.063177 -0.323615 -0.406537 0.582110 -0.704154 0.926434 0.687664
-0.334454 0.117965 0.000000 -0.560259 0.828272 0.000000 0.937378 0.691286
-0.373679 0.063177 0.000000 -0.813074 0.582110 0.000000 0.937378 0.687664
0.000000 0.117965 0.000000 -0.000000 1.000000 0.000000 0.529331 0.095724
-0.334454 0.117965 0.000000 -0.000000 1.000000 0.000000 0.550735 0.095724
-0.167227 0.117965 0.289646 -0.000000 1.000000 0.000000 0.540033 0.113180
0.167227 0.117965 0.289646 0.000000 1.000000 0.000000 0.518629 0.113180
0.334454 0.117965 -0.000000 0.000000 1.000000 0.000000 0.507927 0.095724
0.167227 0.117965 -0.289646 0.000000 1.000000 -0.000000 0.518629 0.078268
-0.167227 0.117965 -0.289646 0.000000 1.000000 -0.000000 0.540033 0.078268
3 0 1 2
3 0 2 3
3 4 5 6
3 6 7 4
3 8 9 10
3 10 11 8
3 12 13 14
3 14 15 12
3 16 17 18
3 16 18 19
3 20 21 22
3 20 22 23
3 24 25 26
3 24 27 25
3 27 28 25
3 27 29 28
3 29 30 28
3 29 31 30
3 31 32 30
3 31 33 32
3 33 34 32
3 33 35 34
3 35 36 34
3 35 37 36
3 38 39 40
3 38 40 41
3 38 41 42
3 38 42 43
3 38 43 44
3 38 44 39
