ply
format ascii 1.0
comment Created by Blender 2.80 (sub 75) - www.blender.org, source file: ''
element vertex 66
property float x
property float y
property float z
property float nx
property float ny
property float nz
property float s
property float t
element face 36
property list uchar uint vertex_indices
end_header
-0.062500 0.062500 -0.187500 -0.000000 1.000000 0.000000 0.349985 0.387616
-0.250000 0.062500 -0.312500 -0.000000 1.000000 0.000000 0.368583 0.375217
-0.250000 0.062500 0.062500 -0.000000 1.000000 0.000000 0.368583 0.412413
0.250000 0.062500 0.062500 -0.000000 1.000000 0.000000 0.318988 0.412413
0.250000 0.062500 -0.312500 -0.000000 1.000000 0.000000 0.318988 0.375217
0.062500 0.062500 -0.187500 -0.000000 1.000000 0.000000 0.337586 0.387616
0.000000 0.062500 0.312500 0.000000 1.000000 0.000000 0.343785 0.437211
-0.062500 0.000000 -0.187500 0.554700 0.000000 -0.832050 0.899547 0.743134
-0.250000 0.000000 -0.312500 0.554700 0.000000 -0.832050 0.875150 0.743134
-0.250000 0.062500 -0.312500 0.554700 0.000000 -0.832050 0.875150 0.749901
-0.062500 0.062500 -0.187500 0.554700 0.000000 -0.832050 0.899547 0.749901
-0.250000 0.000000 -0.312500 -1.000000 -0.000000 -0.000000 0.915769 0.743143
-0.250000 0.000000 0.062500 -1.000000 -0.000000 -0.000000 0.875169 0.743143
-0.250000 0.062500 0.062500 -1.000000 -0.000000 -0.000000 0.875169 0.749910
-0.250000 0.062500 -0.312500 -1.000000 0.000000 0.000000 0.915769 0.749910
0.250000 0.000000 0.062500 1.000000 0.000000 -0.000000 0.915762 0.743159
0.250000 0.000000 -0.312500 1.000000 0.000000 -0.000000 0.875162 0.743159
0.250000 0.062500 -0.312500 1.000000 0.000000 -0.000000 0.875162 0.749925
0.250000 0.062500 0.062500 1.000000 -0.000000 0.000000 0.915762 0.749925
0.250000 0.000000 -0.312500 -0.554700 -0.000000 -0.832050 0.899592 0.743120
0.062500 0.000000 -0.187500 -0.554700 -0.000000 -0.832050 0.875195 0.743120
0.062500 0.062500 -0.187500 -0.554700 -0.000000 -0.832050 0.875195 0.749887
0.250000 0.062500 -0.312500 -0.554700 0.000000 -0.832050 0.899592 0.749887
-0.250000 0.000000 0.062500 -0.707107 0.000000 0.707107 0.913479 0.743146
0.000000 0.000000 0.312500 -0.707107 0.000000 0.707107 0.875201 0.743146
0.000000 0.062500 0.312500 -0.707107 0.000000 0.707107 0.875201 0.749913
-0.250000 0.062500 0.062500 -0.707107 0.000000 0.707107 0.913479 0.749913
0.000000 0.000000 0.312500 0.707107 0.000000 0.707107 0.913492 0.743123
0.250000 0.000000 0.062500 0.707107 0.000000 0.707107 0.875214 0.743123
0.250000 0.062500 0.062500 0.707107 0.000000 0.707107 0.875214 0.749890
0.000000 0.062500 0.312500 0.707107 -0.000000 0.707107 0.913492 0.749890
0.062500 0.000000 -0.187500 -0.000000 -0.000000 -1.000000 0.888755 0.743135
-0.062500 0.000000 -0.187500 -0.000000 -0.000000 -1.000000 0.875221 0.743135
-0.062500 0.062500 -0.187500 -0.000000 -0.000000 -1.000000 0.875221 0.749902
0.062500 0.062500 -0.187500 -0.000000 0.000000 -1.000000 0.888755 0.749902
0.250000 0.000000 0.062500 0.000000 -1.000000 0.000000 0.318988 0.412413
0.000000 0.000000 0.312500 0.000000 -1.000000 0.000000 0.343785 0.437211
-0.250000 0.000000 0.062500 0.000000 -1.000000 0.000000 0.368583 0.412413
-0.250000 0.000000 -0.312500 -0.000000 -1.000000 0.000000 0.368583 0.375217
-0.062500 0.000000 -0.187500 -0.000000 -1.000000 0.000000 0.349985 0.387616
0.062500 0.000000 -0.187500 -0.000000 -1.000000 -0.000000 0.337586 0.387616
0.250000 0.000000 -0.312500 -0.000000 -1.000000 -0.000000 0.318988 0.375217
0.062436 0.062500 0.375058 -0.000000 1.000000 0.000000 0.398625 0.429731
-0.000064 0.062500 0.312558 -0.000000 1.000000 0.000000 0.406274 0.422933
-0.062564 0.062500 0.375058 -0.000000 1.000000 0.000000 0.413922 0.429731
-0.000064 0.062500 0.437558 0.000000 1.000000 -0.000000 0.406274 0.436530
0.062436 0.000000 0.375058 0.707107 0.000000 -0.707107 0.886939 0.749741
-0.000064 0.000000 0.312558 0.707107 0.000000 -0.707107 0.875220 0.749741
-0.000064 0.062500 0.312558 0.707107 0.000000 -0.707107 0.875220 0.741929
0.062436 0.062500 0.375058 0.707107 0.000000 -0.707107 0.886939 0.741929
-0.000064 0.000000 0.312558 -0.707107 -0.000000 -0.707107 0.886939 0.730210
-0.062564 0.000000 0.375058 -0.707107 -0.000000 -0.707107 0.875220 0.730210
-0.062564 0.062500 0.375058 -0.707107 -0.000000 -0.707107 0.875220 0.722397
-0.000064 0.062500 0.312558 -0.707107 0.000000 -0.707107 0.886939 0.722397
-0.000064 0.000000 0.437558 0.707107 0.000000 0.707107 0.886939 0.741929
0.062436 0.000000 0.375058 0.707107 0.000000 0.707107 0.875220 0.741929
0.062436 0.062500 0.375058 0.707107 0.000000 0.707107 0.875220 0.734116
-0.000064 0.062500 0.437558 0.707107 -0.000000 0.707107 0.886939 0.734116
-0.062564 0.000000 0.375058 -0.707107 0.000000 0.707107 0.898658 0.730210
-0.000064 0.000000 0.437558 -0.707107 0.000000 0.707107 0.886939 0.730210
-0.000064 0.062500 0.437558 -0.707107 0.000000 0.707107 0.886939 0.722397
-0.062564 0.062500 0.375058 -0.707107 0.000000 0.707107 0.898658 0.722397
-0.062564 0.000000 0.375058 -0.000000 -1.000000 0.000000 0.413922 0.429731
-0.000064 0.000000 0.312558 -0.000000 -1.000000 0.000000 0.406274 0.422933
0.062436 0.000000 0.375058 -0.000000 -1.000000 0.000000 0.398625 0.429731
-0.000064 0.000000 0.437558 -0.000000 -1.000000 -0.000000 0.406274 0.436530
3 0 1 2
3 3 4 5
3 0 2 6
3 0 6 3
3 0 3 5
3 7 8 9
3 9 10 7
3 11 12 13
3 13 14 11
3 15 16 17
3 17 18 15
3 19 20 21
3 21 22 19
3 23 24 25
3 25 26 23
3 27 28 29
3 29 30 27
3 31 32 33
3 33 34 31
3 35 36 37
3 37 38 39
3 40 41 35
3 35 37 39
3 39 40 35
3 42 43 44
3 45 42 44
3 46 47 48
3 48 49 46
3 50 51 52
3 52 53 50
3 54 55 56
3 56 57 54
3 58 59 60
3 60 61 58
3 62 63 64
3 62 64 65
