ply
format ascii 1.0
comment Created by Blender 2.80 (sub 75) - www.blender.org, source file: ''
element vertex 40
property float x
property float y
property float z
property float nx
property float ny
property float nz
property float s
property float t
element face 20
property list uchar uint vertex_indices
end_header
0.062500 0.062500 0.312500 -0.000000 1.000000 0.000000 0.398625 0.429731
0.000000 0.062500 0.250000 -0.000000 1.000000 0.000000 0.406274 0.422933
-0.062500 0.062500 0.312500 -0.000000 1.000000 0.000000 0.413922 0.429731
0.000000 0.062500 0.375000 0.000000 1.000000 -0.000000 0.406274 0.436530
0.250000 0.062500 -0.187500 -0.000000 1.000000 0.000000 0.375681 0.375343
-0.250000 0.062500 -0.187500 -0.000000 1.000000 0.000000 0.436867 0.375343
0.062500 0.000000 0.312500 0.707107 0.000000 -0.707107 0.886939 0.749741
0.000000 0.000000 0.250000 0.707107 0.000000 -0.707107 0.875220 0.749741
0.000000 0.062500 0.250000 0.707107 0.000000 -0.707107 0.875220 0.741929
0.062500 0.062500 0.312500 0.707107 0.000000 -0.707107 0.886939 0.741929
0.000000 0.000000 0.250000 -0.707107 -0.000000 -0.707107 0.886939 0.730210
-0.062500 0.000000 0.312500 -0.707107 -0.000000 -0.707107 0.875220 0.730210
-0.062500 0.062500 0.312500 -0.707107 -0.000000 -0.707107 0.875220 0.722397
0.000000 0.062500 0.250000 -0.707107 0.000000 -0.707107 0.886939 0.722397
0.000000 0.000000 0.375000 0.707107 0.000000 0.707107 0.886939 0.741929
0.062500 0.000000 0.312500 0.707107 0.000000 0.707107 0.875220 0.741929
0.062500 0.062500 0.312500 0.707107 0.000000 0.707107 0.875220 0.734116
0.000000 0.062500 0.375000 0.707107 -0.000000 0.707107 0.886939 0.734116
-0.062500 0.000000 0.312500 -0.707107 0.000000 0.707107 0.898658 0.730210
0.000000 0.000000 0.375000 -0.707107 0.000000 0.707107 0.886939 0.730210
0.000000 0.062500 0.375000 -0.707107 0.000000 0.707107 0.886939 0.722397
-0.062500 0.062500 0.312500 -0.707107 0.000000 0.707107 0.898658 0.722397
0.250000 0.000000 -0.187500 0.000000 0.000000 -1.000000 0.937177 0.702866
-0.250000 0.000000 -0.187500 0.000000 0.000000 -1.000000 0.875220 0.702866
-0.250000 0.062500 -0.187500 0.000000 0.000000 -1.000000 0.875220 0.695054
0.250000 0.062500 -0.187500 0.000000 0.000000 -1.000000 0.937177 0.695054
-0.250000 0.000000 -0.187500 -0.868243 0.000000 0.496139 0.929908 0.722397
0.000000 0.000000 0.250000 -0.868243 0.000000 0.496139 0.875220 0.722397
0.000000 0.062500 0.250000 -0.868243 0.000000 0.496139 0.875220 0.714585
-0.250000 0.062500 -0.187500 -0.868243 0.000000 0.496139 0.929908 0.714585
0.000000 0.000000 0.250000 0.868243 0.000000 0.496139 0.929908 0.710679
0.250000 0.000000 -0.187500 0.868243 0.000000 0.496139 0.875220 0.710679
0.250000 0.062500 -0.187500 0.868243 0.000000 0.496139 0.875220 0.702866
0.000000 0.062500 0.250000 0.868243 -0.000000 0.496139 0.929908 0.702866
0.000000 0.000000 0.250000 0.000000 -1.000000 0.000000 0.406274 0.422933
-0.250000 0.000000 -0.187500 0.000000 -1.000000 0.000000 0.375681 0.375343
0.250000 0.000000 -0.187500 0.000000 -1.000000 0.000000 0.436867 0.375343
-0.062500 0.000000 0.312500 -0.000000 -1.000000 0.000000 0.413922 0.429731
0.062500 0.000000 0.312500 -0.000000 -1.000000 0.000000 0.398625 0.429731
0.000000 0.000000 0.375000 -0.000000 -1.000000 -0.000000 0.406274 0.436530
3 0 1 2
3 3 0 2
3 4 5 1
3 6 7 8
3 8 9 6
3 10 11 12
3 12 13 10
3 14 15 16
3 16 17 14
3 18 19 20
3 20 21 18
3 22 23 24
3 24 25 22
3 26 27 28
3 28 29 26
3 30 31 32
3 32 33 30
3 34 35 36
3 37 34 38
3 37 38 39
