ply
format ascii 1.0
comment Created by Blender 2.80 (sub 75) - www.blender.org, source file: ''
element vertex 42
property float x
property float y
property float z
property float nx
property float ny
property float nz
property float s
property float t
element face 24
property list uchar uint vertex_indices
end_header
-0.062500 0.062500 -0.187500 -0.000000 1.000000 0.000000 0.349985 0.387616
-0.250000 0.062500 -0.312500 -0.000000 1.000000 0.000000 0.368583 0.375217
-0.250000 0.062500 0.062500 -0.000000 1.000000 0.000000 0.368583 0.412413
0.250000 0.062500 0.062500 -0.000000 1.000000 0.000000 0.318988 0.412413
0.250000 0.062500 -0.312500 -0.000000 1.000000 0.000000 0.318988 0.375217
0.062500 0.062500 -0.187500 -0.000000 1.000000 0.000000 0.337586 0.387616
0.000000 0.062500 0.312500 0.000000 1.000000 0.000000 0.343785 0.437211
-0.062500 0.000000 -0.187500 0.554700 0.000000 -0.832050 0.899547 0.743134
-0.250000 0.000000 -0.312500 0.554700 0.000000 -0.832050 0.875150 0.743134
-0.250000 0.062500 -0.312500 0.554700 0.000000 -0.832050 0.875150 0.749901
-0.062500 0.062500 -0.187500 0.554700 0.000000 -0.832050 0.899547 0.749901
-0.250000 0.000000 -0.312500 -1.000000 -0.000000 -0.000000 0.915769 0.743143
-0.250000 0.000000 0.062500 -1.000000 -0.000000 -0.000000 0.875169 0.743143
-0.250000 0.062500 0.062500 -1.000000 -0.000000 -0.000000 0.875169 0.749910
-0.250000 0.062500 -0.312500 -1.000000 0.000000 0.000000 0.915769 0.749910
0.250000 0.000000 0.062500 1.000000 0.000000 -0.000000 0.915762 0.743159
0.250000 0.000000 -0.312500 1.000000 0.000000 -0.000000 0.875162 0.743159
0.250000 0.062500 -0.312500 1.000000 0.000000 -0.000000 0.875162 0.749925
0.250000 0.062500 0.062500 1.000000 -0.000000 0.000000 0.915762 0.749925
0.250000 0.000000 -0.312500 -0.554700 -0.000000 -0.832050 0.899592 0.743120
0.062500 0.000000 -0.187500 -0.554700 -0.000000 -0.832050 0.875195 0.743120
0.062500 0.062500 -0.187500 -0.554700 -0.000000 -0.832050 0.875195 0.749887
0.250000 0.062500 -0.312500 -0.554700 0.000000 -0.832050 0.899592 0.749887
-0.250000 0.000000 0.062500 -0.707107 0.000000 0.707107 0.913479 0.743146
0.000000 0.000000 0.312500 -0.707107 0.000000 0.707107 0.875201 0.743146
0.000000 0.062500 0.312500 -0.707107 0.000000 0.707107 0.875201 0.749913
-0.250000 0.062500 0.062500 -0.707107 0.000000 0.707107 0.913479 0.749913
0.000000 0.000000 0.312500 0.707107 0.000000 0.707107 0.913492 0.743123
0.250000 0.000000 0.062500 0.707107 0.000000 0.707107 0.875214 0.743123
0.250000 0.062500 0.062500 0.707107 0.000000 0.707107 0.875214 0.749890
0.000000 0.062500 0.312500 0.707107 -0.000000 0.707107 0.913492 0.749890
0.062500 0.000000 -0.187500 -0.000000 -0.000000 -1.000000 0.888755 0.743135
-0.062500 0.000000 -0.187500 -0.000000 -0.000000 -1.000000 0.875221 0.743135
-0.062500 0.062500 -0.187500 -0.000000 -0.000000 -1.000000 0.875221 0.749902
0.062500 0.062500 -0.187500 -0.000000 0.000000 -1.000000 0.888755 0.749902
0.250000 0.000000 0.062500 0.000000 -1.000000 0.000000 0.318988 0.412413
0.000000 0.000000 0.312500 0.000000 -1.000000 0.000000 0.343785 0.437211
-0.250000 0.000000 0.062500 0.000000 -1.000000 0.000000 0.368583 0.412413
-0.250000 0.000000 -0.312500 -0.000000 -1.000000 0.000000 0.368583 0.375217
-0.062500 0.000000 -0.187500 -0.000000 -1.000000 0.000000 0.349985 0.387616
0.062500 0.000000 -0.187500 -0.000000 -1.000000 -0.000000 0.337586 0.387616
0.250000 0.000000 -0.312500 -0.000000 -1.000000 -0.000000 0.318988 0.375217
3 0 1 2
3 3 4 5
3 0 2 6
3 0 6 3
3 0 3 5
3 7 8 9
3 9 10 7
3 11 12 13
3 13 14 11
3 15 16 17
3 17 18 15
3 19 20 21
3 21 22 19
3 23 24 25
3 25 26 23
3 27 28 29
3 29 30 27
3 31 32 33
3 33 34 31
3 35 36 37
3 37 38 39
3 40 41 35
3 35 37 39
3 39 40 35
