ply
format ascii 1.0
comment Created by Blender 2.80 (sub 75) - www.blender.org, source file: ''
element vertex 24
property float x
property float y
property float z
property float nx
property float ny
property float nz
property float s
property float t
element face 12
property list uchar uint vertex_indices
end_header
0.250000 0.062500 0.250000 0.000000 1.000000 0.000000 0.445536 0.241787
0.250000 0.062500 -0.250000 0.000000 1.000000 0.000000 0.445536 0.187525
-0.250000 0.062500 -0.250000 0.000000 1.000000 0.000000 0.496075 0.187525
-0.250000 0.062500 0.250000 -0.000000 1.000000 0.000000 0.496075 0.241787
0.250000 0.000000 0.250000 1.000000 0.000000 -0.000000 0.929461 0.742575
0.250000 0.000000 -0.250000 1.000000 0.000000 -0.000000 0.875284 0.742575
0.250000 0.062500 -0.250000 1.000000 0.000000 -0.000000 0.875284 0.749958
0.250000 0.062500 0.250000 1.000000 -0.000000 0.000000 0.929461 0.749958
0.250000 0.000000 -0.250000 0.000000 0.000000 -1.000000 0.925343 0.742421
-0.250000 0.000000 -0.250000 0.000000 0.000000 -1.000000 0.875037 0.742421
-0.250000 0.062500 -0.250000 0.000000 0.000000 -1.000000 0.875037 0.749605
0.250000 0.062500 -0.250000 0.000000 0.000000 -1.000000 0.925343 0.749605
-0.250000 0.000000 -0.250000 -1.000000 -0.000000 -0.000000 0.929381 0.743019
-0.250000 0.000000 0.250000 -1.000000 -0.000000 -0.000000 0.875303 0.743019
-0.250000 0.062500 0.250000 -1.000000 -0.000000 -0.000000 0.875303 0.749704
-0.250000 0.062500 -0.250000 -1.000000 0.000000 0.000000 0.929381 0.749704
-0.250000 0.000000 0.250000 0.000000 -1.000000 0.000000 0.937919 0.749690
-0.250000 0.000000 -0.250000 0.000000 -1.000000 0.000000 0.937919 0.695506
0.250000 0.000000 -0.250000 0.000000 -1.000000 0.000000 0.988411 0.695506
0.250000 0.000000 0.250000 -0.000000 -1.000000 -0.000000 0.988411 0.749690
0.250000 0.062500 0.250000 0.000000 0.000000 1.000000 0.875209 0.749664
-0.250000 0.062500 0.250000 0.000000 0.000000 1.000000 0.925217 0.749664
-0.250000 0.000000 0.250000 0.000000 0.000000 1.000000 0.925217 0.742780
0.250000 0.000000 0.250000 0.000000 -0.000000 1.000000 0.875209 0.742780
3 0 1 2
3 0 2 3
3 4 5 6
3 6 7 4
3 8 9 10
3 10 11 8
3 12 13 14
3 14 15 12
3 16 17 18
3 16 18 19
3 20 21 22
3 20 22 23
