ply
format ascii 1.0
comment Created by Blender 2.80 (sub 75) - www.blender.org, source file: ''
element vertex 44
property float x
property float y
property float z
property float nx
property float ny
property float nz
property float s
property float t
element face 22
property list uchar uint vertex_indices
end_header
0.333300 0.062500 0.312500 0.000000 1.000000 0.000000 0.562513 0.312471
0.333300 0.062500 -0.312500 0.000000 1.000000 0.000000 0.562513 0.250014
-0.333300 0.062500 -0.312500 0.000000 1.000000 0.000000 0.621061 0.250014
-0.333300 0.062500 0.312500 -0.000000 1.000000 0.000000 0.621061 0.312471
0.333300 0.000000 0.312500 1.000000 0.000000 -0.000000 0.937357 0.742481
0.333300 0.000000 -0.312500 1.000000 0.000000 -0.000000 0.875067 0.742481
0.333300 0.062500 -0.312500 1.000000 0.000000 -0.000000 0.875067 0.749950
0.333300 0.062500 0.312500 1.000000 -0.000000 0.000000 0.937357 0.749950
0.333300 0.000000 -0.312500 0.000000 0.000000 -1.000000 0.933447 0.742321
-0.333300 0.000000 -0.312500 0.000000 0.000000 -1.000000 0.875037 0.742321
-0.333300 0.062500 -0.312500 0.000000 0.000000 -1.000000 0.875037 0.749604
0.333300 0.062500 -0.312500 0.000000 0.000000 -1.000000 0.933447 0.749604
-0.333300 0.000000 -0.312500 -1.000000 -0.000000 -0.000000 0.937457 0.742554
-0.333300 0.000000 0.312500 -1.000000 -0.000000 -0.000000 0.875056 0.742554
-0.333300 0.062500 0.312500 -1.000000 -0.000000 -0.000000 0.875056 0.749865
-0.333300 0.062500 -0.312500 -1.000000 0.000000 0.000000 0.937457 0.749865
-0.333300 0.000000 0.312500 0.000000 -1.000000 0.000000 0.937500 0.750010
-0.333300 0.000000 -0.312500 0.000000 -1.000000 0.000000 0.937500 0.687553
0.333300 0.000000 -0.312500 0.000000 -1.000000 0.000000 0.999900 0.687553
0.333300 0.000000 0.312500 -0.000000 -1.000000 -0.000000 0.999900 0.750010
0.333300 0.062500 0.312500 0.000000 0.000000 1.000000 0.875199 0.749664
-0.333300 0.062500 0.312500 0.000000 0.000000 1.000000 0.933527 0.749664
-0.333300 0.000000 0.312500 0.000000 0.000000 1.000000 0.933527 0.742293
0.333300 0.000000 0.312500 0.000000 -0.000000 1.000000 0.875199 0.742293
0.305500 0.187593 -0.248951 -0.000000 1.000000 0.000000 0.570847 0.262033
-0.305297 0.187593 -0.248951 -0.000000 1.000000 0.000000 0.613162 0.262033
-0.305297 0.187593 0.288057 -0.000000 1.000000 0.000000 0.613162 0.304290
0.305500 0.187593 0.288057 0.000000 1.000000 0.000000 0.570847 0.304290
0.244698 0.062986 -0.195494 0.000000 -0.394252 -0.919002 0.574359 0.273033
-0.244495 0.062986 -0.195494 0.000000 -0.394252 -0.919002 0.604989 0.273033
-0.305297 0.187593 -0.248951 0.000000 -0.394252 -0.919002 0.608796 0.265800
0.305500 0.187593 -0.248951 0.000000 -0.394252 -0.919002 0.570552 0.265800
-0.244495 0.062986 -0.195494 -0.898718 -0.438528 0.000000 0.607818 0.265725
-0.244495 0.062986 0.234600 -0.898718 -0.438528 0.000000 0.574780 0.265725
-0.305297 0.187593 0.288057 -0.898718 -0.438528 0.000000 0.570674 0.273162
-0.305297 0.187593 -0.248951 -0.898718 -0.438528 0.000000 0.611924 0.273162
-0.244495 0.062986 0.234600 0.000000 -0.394252 0.919002 0.604635 0.266088
0.244698 0.062986 0.234600 0.000000 -0.394252 0.919002 0.574470 0.266088
0.305500 0.187593 0.288057 0.000000 -0.394252 0.919002 0.570721 0.273212
-0.305297 0.187593 0.288057 0.000000 -0.394252 0.919002 0.608384 0.273212
0.244698 0.062986 0.234600 0.898718 -0.438528 -0.000000 0.574760 0.273143
0.244698 0.062986 -0.195494 0.898718 -0.438528 -0.000000 0.608567 0.273143
0.305500 0.187593 -0.248951 0.898718 -0.438528 -0.000000 0.612769 0.265655
0.305500 0.187593 0.288057 0.898718 -0.438528 -0.000000 0.570558 0.265655
3 0 1 2
3 0 2 3
3 4 5 6
3 6 7 4
3 8 9 10
3 10 11 8
3 12 13 14
3 14 15 12
3 16 17 18
3 16 18 19
3 20 21 22
3 20 22 23
3 24 25 26
3 26 27 24
3 28 29 30
3 30 31 28
3 32 33 34
3 34 35 32
3 36 37 38
3 38 39 36
3 40 41 42
3 42 43 40
