ply
format ascii 1.0
comment Created by Blender 2.80 (sub 75) - www.blender.org, source file: ''
element vertex 24
property float x
property float y
property float z
property float nx
property float ny
property float nz
property float s
property float t
element face 12
property list uchar uint vertex_indices
end_header
0.333300 0.062500 0.312500 0.000000 1.000000 0.000000 0.625034 0.562473
0.333300 0.062500 -0.312500 0.000000 1.000000 0.000000 0.625034 0.503987
-0.333300 0.062500 -0.312500 0.000000 1.000000 0.000000 0.683531 0.503987
-0.333300 0.062500 0.312500 -0.000000 1.000000 0.000000 0.683531 0.562473
0.333300 0.000000 0.312500 1.000000 0.000000 -0.000000 0.937357 0.742481
0.333300 0.000000 -0.312500 1.000000 0.000000 -0.000000 0.875067 0.742481
0.333300 0.062500 -0.312500 1.000000 0.000000 -0.000000 0.875067 0.749950
0.333300 0.062500 0.312500 1.000000 -0.000000 0.000000 0.937357 0.749950
0.333300 0.000000 -0.312500 0.000000 0.000000 -1.000000 0.933447 0.742321
-0.333300 0.000000 -0.312500 0.000000 0.000000 -1.000000 0.875037 0.742321
-0.333300 0.062500 -0.312500 0.000000 0.000000 -1.000000 0.875037 0.749604
0.333300 0.062500 -0.312500 0.000000 0.000000 -1.000000 0.933447 0.749604
-0.333300 0.000000 -0.312500 -1.000000 -0.000000 -0.000000 0.937457 0.742554
-0.333300 0.000000 0.312500 -1.000000 -0.000000 -0.000000 0.875056 0.742554
-0.333300 0.062500 0.312500 -1.000000 -0.000000 -0.000000 0.875056 0.749865
-0.333300 0.062500 -0.312500 -1.000000 0.000000 0.000000 0.937457 0.749865
-0.333300 0.000000 0.312500 0.000000 -1.000000 0.000000 0.937500 0.750010
-0.333300 0.000000 -0.312500 0.000000 -1.000000 0.000000 0.937500 0.687553
0.333300 0.000000 -0.312500 0.000000 -1.000000 0.000000 0.999900 0.687553
0.333300 0.000000 0.312500 -0.000000 -1.000000 -0.000000 0.999900 0.750010
0.333300 0.062500 0.312500 0.000000 0.000000 1.000000 0.875199 0.749664
-0.333300 0.062500 0.312500 0.000000 0.000000 1.000000 0.933527 0.749664
-0.333300 0.000000 0.312500 0.000000 0.000000 1.000000 0.933527 0.742293
0.333300 0.000000 0.312500 0.000000 -0.000000 1.000000 0.875199 0.742293
3 0 1 2
3 0 2 3
3 4 5 6
3 6 7 4
3 8 9 10
3 10 11 8
3 12 13 14
3 14 15 12
3 16 17 18
3 16 18 19
3 20 21 22
3 20 22 23
