ply
format ascii 1.0
comment Created by Blender 2.80 (sub 75) - www.blender.org, source file: 'blocks.blend'
element vertex 36
property float x
property float y
property float z
property float nx
property float ny
property float nz
property float s
property float t
element face 20
property list uchar uint vertex_indices
end_header
-0.500000 1.000000 0.500000 0.000000 1.000000 -0.000000 0.062446 0.999990
0.500000 1.000000 0.500000 0.000000 1.000000 -0.000000 0.000023 0.999990
0.500000 1.000000 0.000000 0.000000 1.000000 -0.000000 0.000023 0.968772
-0.500000 1.000000 -0.000000 0.000000 1.000000 0.000000 0.062446 0.968772
0.500000 -0.000000 -0.500000 0.000000 -0.000000 -1.000000 0.000023 0.937554
-0.500000 0.000000 -0.500000 0.000000 -0.000000 -1.000000 0.062446 0.937554
-0.500000 0.500000 -0.500000 0.000000 -0.000000 -1.000000 0.062446 0.968772
0.500000 0.500000 -0.500000 0.000000 0.000000 -1.000000 0.000023 0.968772
0.500000 0.500000 0.000000 0.000000 1.000000 -0.000000 0.000023 0.968772
0.500000 0.500000 -0.500000 0.000000 1.000000 -0.000000 0.000023 0.937554
-0.500000 0.500000 -0.000000 0.000000 1.000000 -0.000000 0.062446 0.968772
-0.500000 0.500000 -0.500000 0.000000 1.000000 0.000000 0.062446 0.937554
0.500000 1.000000 0.000000 0.000000 0.000000 -1.000000 0.000023 0.999990
0.500000 0.500000 0.000000 0.000000 0.000000 -1.000000 0.000023 0.968772
-0.500000 1.000000 -0.000000 0.000000 0.000000 -1.000000 0.062446 0.999990
-0.500000 0.500000 -0.000000 0.000000 0.000000 -1.000000 0.062446 0.968772
0.500000 1.000000 0.500000 -0.000000 0.000000 1.000000 0.062446 0.999990
-0.500000 1.000000 0.500000 -0.000000 0.000000 1.000000 0.000023 0.999990
-0.500000 0.000000 0.500000 -0.000000 0.000000 1.000000 0.000023 0.937554
0.500000 -0.000000 0.500000 0.000000 -0.000000 1.000000 0.062446 0.937554
0.500000 -0.000000 -0.500000 1.000000 -0.000000 0.000000 0.062446 0.937554
0.500000 0.500000 -0.500000 1.000000 -0.000000 0.000000 0.062446 0.968772
0.500000 0.500000 0.000000 1.000000 -0.000000 0.000000 0.031235 0.968772
0.500000 1.000000 0.000000 1.000000 0.000000 0.000000 0.031235 0.999990
0.500000 1.000000 0.500000 1.000000 0.000000 0.000000 0.000023 0.999990
-0.500000 0.500000 -0.000000 -1.000000 0.000000 0.000000 0.031235 0.968772
-0.500000 0.500000 -0.500000 -1.000000 0.000000 0.000000 0.000023 0.968772
-0.500000 0.000000 -0.500000 -1.000000 0.000000 0.000000 0.000023 0.937554
-0.500000 1.000000 0.500000 -1.000000 0.000000 0.000000 0.062446 0.999990
-0.500000 1.000000 -0.000000 -1.000000 0.000000 0.000000 0.031235 0.999990
-0.500000 0.000000 0.500000 -1.000000 0.000000 0.000000 0.062446 0.937554
0.500000 -0.000000 0.500000 1.000000 -0.000000 0.000000 0.000023 0.937554
0.500000 -0.000000 -0.500000 -0.000000 -1.000000 -0.000000 0.000023 0.999990
0.500000 -0.000000 0.500000 -0.000000 -1.000000 -0.000000 0.000023 0.937554
-0.500000 0.000000 0.500000 -0.000000 -1.000000 -0.000000 0.062446 0.937554
-0.500000 0.000000 -0.500000 -0.000000 -1.000000 0.000000 0.062446 0.999990
3 0 1 2
3 2 3 0
3 4 5 6
3 6 7 4
3 8 9 10
3 10 9 11
3 12 13 14
3 14 13 15
3 16 17 18
3 16 18 19
3 20 21 22
3 22 23 24
3 25 26 27
3 28 29 25
3 28 25 30
3 30 25 27
3 20 22 31
3 22 24 31
3 32 33 34
3 32 34 35
