ply
format ascii 1.0
comment Created by Blender 2.80 (sub 75) - www.blender.org, source file: 'blocks.blend'
element vertex 42
property float x
property float y
property float z
property float nx
property float ny
property float nz
property float s
property float t
element face 24
property list uchar uint vertex_indices
end_header
0.500000 -0.000000 -0.500000 0.000000 -0.000000 -1.000000 0.000027 0.937521
-0.500000 0.000000 -0.500000 0.000000 -0.000000 -1.000000 0.062465 0.937521
-0.500000 0.500000 -0.500000 0.000000 -0.000000 -1.000000 0.062465 0.968742
0.500000 0.500000 -0.500000 0.000000 0.000000 -1.000000 0.000027 0.968742
0.500000 -0.000000 -0.500000 -0.000000 -1.000000 0.000000 0.000027 0.999963
0.500000 -0.000000 0.500000 -0.000000 -1.000000 0.000000 0.000027 0.937521
-0.500000 0.000000 0.500000 -0.000000 -1.000000 0.000000 0.062465 0.937521
-0.500000 0.000000 -0.500000 -0.000000 -1.000000 0.000000 0.062465 0.999963
-0.500000 1.000000 -0.000000 0.000000 0.000000 -1.000000 0.062465 0.999963
0.000000 1.000000 -0.000000 0.000000 0.000000 -1.000000 0.031246 0.999963
0.000000 0.500000 -0.000000 0.000000 0.000000 -1.000000 0.031246 0.968742
-0.500000 0.500000 -0.000000 -0.000000 0.000000 -1.000000 0.062465 0.968742
0.000000 1.000000 -0.000000 1.000000 -0.000000 -0.000000 0.031246 0.999963
0.000000 1.000000 0.500000 1.000000 -0.000000 -0.000000 0.000027 0.999963
0.000000 0.500000 0.500000 1.000000 -0.000000 -0.000000 0.000027 0.968742
0.000000 0.500000 -0.000000 1.000000 -0.000000 0.000000 0.031246 0.968742
-0.500000 1.000000 -0.000000 0.000000 1.000000 0.000000 0.062465 0.968742
-0.500000 1.000000 0.500000 0.000000 1.000000 0.000000 0.062465 0.999963
0.000000 1.000000 0.500000 0.000000 1.000000 0.000000 0.031246 0.999963
0.000000 1.000000 -0.000000 0.000000 1.000000 -0.000000 0.031246 0.968742
-0.500000 1.000000 0.500000 0.000000 -0.000000 1.000000 0.000027 0.999963
-0.500000 0.000000 0.500000 0.000000 -0.000000 1.000000 0.000027 0.937521
0.000000 0.500000 0.500000 0.000000 -0.000000 1.000000 0.031246 0.968742
0.000000 1.000000 0.500000 0.000000 -0.000000 1.000000 0.031246 0.999963
0.500000 0.500000 0.500000 -0.000000 0.000000 1.000000 0.062465 0.968742
0.500000 -0.000000 0.500000 0.000000 -0.000000 1.000000 0.062465 0.937521
0.000000 0.500000 0.500000 0.000000 1.000000 -0.000000 0.031246 0.999963
0.500000 0.500000 0.500000 0.000000 1.000000 -0.000000 0.000027 0.999963
0.500000 0.500000 -0.500000 0.000000 1.000000 -0.000000 0.000027 0.937521
0.000000 0.500000 -0.000000 0.000000 1.000000 0.000000 0.031246 0.968742
-0.500000 0.500000 -0.500000 0.000000 1.000000 0.000000 0.062465 0.937521
-0.500000 0.500000 -0.000000 0.000000 1.000000 0.000000 0.062465 0.968742
0.500000 0.500000 -0.500000 1.000000 -0.000000 0.000000 0.062465 0.968742
0.500000 0.500000 0.500000 1.000000 -0.000000 0.000000 0.000027 0.968742
0.500000 -0.000000 0.500000 1.000000 -0.000000 0.000000 0.000027 0.937521
0.500000 -0.000000 -0.500000 1.000000 0.000000 0.000000 0.062465 0.937521
-0.500000 1.000000 0.500000 -1.000000 0.000000 0.000000 0.062465 0.999963
-0.500000 1.000000 -0.000000 -1.000000 0.000000 0.000000 0.031246 0.999963
-0.500000 0.500000 -0.000000 -1.000000 0.000000 0.000000 0.031246 0.968742
-0.500000 0.000000 0.500000 -1.000000 0.000000 0.000000 0.062465 0.937521
-0.500000 0.500000 -0.500000 -1.000000 0.000000 0.000000 0.000027 0.968742
-0.500000 0.000000 -0.500000 -1.000000 0.000000 0.000000 0.000027 0.937521
3 0 1 2
3 2 3 0
3 4 5 6
3 4 6 7
3 8 9 10
3 8 10 11
3 12 13 14
3 12 14 15
3 16 17 18
3 16 18 19
3 20 21 22
3 20 22 23
3 24 22 21
3 24 21 25
3 26 27 28
3 26 28 29
3 29 28 30
3 29 30 31
3 32 33 34
3 32 34 35
3 36 37 38
3 36 38 39
3 39 38 40
3 39 40 41
