ply
format ascii 1.0
comment Created by Blender 2.80 (sub 75) - www.blender.org, source file: ''
element vertex 48
property float x
property float y
property float z
property float nx
property float ny
property float nz
property float s
property float t
element face 20
property list uchar uint vertex_indices
end_header
0.000000 0.720000 -0.000000 0.000000 0.404226 0.914659 0.975385 0.934409
-0.070711 0.560000 0.070711 0.000000 0.404226 0.914659 0.968836 0.906841
0.070711 0.560000 0.070711 0.000000 0.404226 0.914659 0.981934 0.906841
0.000000 0.720000 -0.000000 0.914659 0.404226 -0.000000 0.988483 0.934409
0.070711 0.560000 0.070711 0.914659 0.404226 -0.000000 0.981934 0.906841
0.070711 0.560000 -0.070711 0.914659 0.404226 -0.000000 0.995032 0.906841
0.000000 0.720000 -0.000000 0.000000 0.404226 -0.914659 0.949189 0.934409
0.070711 0.560000 -0.070711 0.000000 0.404226 -0.914659 0.942640 0.906841
-0.070711 0.560000 -0.070711 0.000000 0.404226 -0.914659 0.955738 0.906841
0.000000 0.720000 -0.000000 -0.914659 0.404226 0.000000 0.962287 0.934409
-0.070711 0.560000 -0.070711 -0.914659 0.404226 0.000000 0.955738 0.906841
-0.070711 0.560000 0.070711 -0.914659 0.404226 0.000000 0.968836 0.906841
-0.000000 0.400000 -0.000000 0.000000 -0.404226 0.914659 0.975385 0.879273
0.070711 0.560000 0.070711 0.000000 -0.404226 0.914659 0.981934 0.906841
-0.070711 0.560000 0.070711 0.000000 -0.404226 0.914659 0.968836 0.906841
-0.000000 0.400000 -0.000000 0.914659 -0.404226 0.000000 0.988483 0.879273
0.070711 0.560000 -0.070711 0.914659 -0.404226 0.000000 0.995032 0.906841
0.070711 0.560000 0.070711 0.914659 -0.404226 0.000000 0.981934 0.906841
-0.000000 0.400000 -0.000000 -0.000000 -0.404226 -0.914659 0.949189 0.879273
-0.070711 0.560000 -0.070711 -0.000000 -0.404226 -0.914659 0.955738 0.906841
0.070711 0.560000 -0.070711 -0.000000 -0.404226 -0.914659 0.942640 0.906841
-0.000000 0.400000 -0.000000 -0.914659 -0.404226 0.000000 0.962287 0.879273
-0.070711 0.560000 0.070711 -0.914659 -0.404226 0.000000 0.968836 0.906841
-0.070711 0.560000 -0.070711 -0.914659 -0.404226 0.000000 0.955738 0.906841
0.050000 0.000000 -0.050000 0.000000 -1.000000 0.000000 0.000000 0.000000
0.050000 0.000000 0.050000 0.000000 -1.000000 0.000000 0.000000 0.000000
-0.050000 0.000000 0.050000 0.000000 -1.000000 0.000000 0.000000 0.000000
-0.050000 0.000000 -0.050000 0.000000 -1.000000 0.000000 0.000000 0.000000
0.050000 0.000000 -0.050000 0.000000 -0.000000 -1.000000 0.000000 0.000000
-0.050000 0.000000 -0.050000 0.000000 -0.000000 -1.000000 0.000000 0.000000
-0.050000 0.600000 -0.050000 0.000000 -0.000000 -1.000000 0.000000 0.000000
0.050000 0.600000 -0.050000 -0.000000 -0.000000 -1.000000 0.000000 0.000000
-0.050000 0.000000 -0.050000 -1.000000 -0.000000 -0.000000 0.000000 0.000000
-0.050000 0.000000 0.050000 -1.000000 -0.000000 -0.000000 0.000000 0.000000
-0.050000 0.600000 0.050000 -1.000000 -0.000000 -0.000000 0.000000 0.000000
-0.050000 0.600000 -0.050000 -1.000000 -0.000000 0.000000 0.000000 0.000000
-0.050000 0.000000 0.050000 0.000000 0.000000 1.000000 0.000000 0.000000
0.050000 0.000000 0.050000 0.000000 0.000000 1.000000 0.000000 0.000000
0.050000 0.600000 0.050000 0.000000 0.000000 1.000000 0.000000 0.000000
-0.050000 0.600000 0.050000 0.000000 0.000000 1.000000 0.000000 0.000000
0.050000 0.000000 0.050000 1.000000 -0.000000 0.000000 0.000000 0.000000
0.050000 0.000000 -0.050000 1.000000 -0.000000 0.000000 0.000000 0.000000
0.050000 0.600000 -0.050000 1.000000 -0.000000 0.000000 0.000000 0.000000
0.050000 0.600000 0.050000 1.000000 -0.000000 0.000000 0.000000 0.000000
0.050000 0.600000 0.050000 0.000000 1.000000 -0.000000 0.000000 0.000000
0.050000 0.600000 -0.050000 0.000000 1.000000 -0.000000 0.000000 0.000000
-0.050000 0.600000 -0.050000 0.000000 1.000000 -0.000000 0.000000 0.000000
-0.050000 0.600000 0.050000 -0.000000 1.000000 0.000000 0.000000 0.000000
3 0 1 2
3 3 4 5
3 6 7 8
3 9 10 11
3 12 13 14
3 15 16 17
3 18 19 20
3 21 22 23
3 24 25 26
3 26 27 24
3 28 29 30
3 30 31 28
3 32 33 34
3 34 35 32
3 36 37 38
3 38 39 36
3 40 41 42
3 42 43 40
3 44 45 46
3 44 46 47
