ply
format ascii 1.0
comment Created by Blender 2.80 (sub 75) - www.blender.org, source file: 'blocks.blend'
element vertex 40
property float x
property float y
property float z
property float nx
property float ny
property float nz
property float s
property float t
element face 20
property list uchar uint vertex_indices
end_header
-0.062500 0.690576 -0.031250 0.000000 -1.000000 0.000000 0.027358 0.976542
-0.500000 0.690576 0.031250 0.000000 -1.000000 0.000000 0.000014 0.980448
-0.500000 0.690576 -0.031250 0.000000 -1.000000 0.000000 0.000014 0.976542
-0.062500 0.815576 -0.031250 0.000000 1.000000 0.000000 0.000014 0.976542
-0.500000 0.815576 0.031250 0.000000 1.000000 0.000000 0.027358 0.980448
-0.062500 0.815576 0.031250 0.000000 1.000000 0.000000 0.000014 0.980448
-0.062500 0.690576 -0.031250 -0.000000 -0.000000 -1.000000 0.000014 0.988261
-0.500000 0.815576 -0.031250 -0.000000 -0.000000 -1.000000 0.027358 0.996073
-0.062500 0.815576 -0.031250 -0.000000 -0.000000 -1.000000 0.000014 0.996073
-0.500000 0.690576 0.031250 -0.000000 0.000000 1.000000 0.000014 0.988261
-0.062500 0.815576 0.031250 -0.000000 0.000000 1.000000 0.027358 0.996073
-0.500000 0.815576 0.031250 -0.000000 0.000000 1.000000 0.000014 0.996073
-0.062500 0.690576 0.031250 -0.000000 -1.000000 -0.000000 0.027358 0.980448
-0.500000 0.815576 -0.031250 0.000000 1.000000 -0.000000 0.027358 0.976542
-0.500000 0.690576 -0.031250 0.000000 0.000000 -1.000000 0.027358 0.988261
-0.062500 0.690576 0.031250 0.000000 -0.000000 1.000000 0.027358 0.988261
-0.062500 0.315576 -0.031250 0.000000 -1.000000 0.000000 0.027358 0.976542
-0.500000 0.315576 0.031250 0.000000 -1.000000 0.000000 0.000014 0.980448
-0.500000 0.315576 -0.031250 0.000000 -1.000000 0.000000 0.000014 0.976542
-0.062500 0.315576 -0.031250 -0.000000 -0.000000 -1.000000 0.000014 0.988261
-0.500000 0.440576 -0.031250 -0.000000 -0.000000 -1.000000 0.027358 0.996073
-0.062500 0.440576 -0.031250 -0.000000 -0.000000 -1.000000 0.000014 0.996073
-0.062500 0.440576 -0.031250 0.000000 1.000000 0.000000 0.000014 0.976542
-0.500000 0.440576 0.031250 0.000000 1.000000 0.000000 0.027358 0.980448
-0.062500 0.440576 0.031250 0.000000 1.000000 0.000000 0.000014 0.980448
-0.062500 0.440576 0.031250 0.000000 -0.000000 1.000000 0.027358 0.996073
-0.500000 0.315576 0.031250 0.000000 -0.000000 1.000000 0.000014 0.988261
-0.062500 0.315576 0.031250 0.000000 -0.000000 1.000000 0.027358 0.988261
-0.062500 0.315576 0.031250 -0.000000 -1.000000 -0.000000 0.027358 0.980448
-0.500000 0.315576 -0.031250 0.000000 0.000000 -1.000000 0.027358 0.988261
-0.500000 0.440576 -0.031250 0.000000 1.000000 -0.000000 0.027358 0.976542
-0.500000 0.440576 0.031250 -0.000000 0.000000 1.000000 0.000014 0.996073
-0.500000 0.815576 0.031250 -1.000000 0.000000 0.000000 0.031195 0.995973
-0.500000 0.815576 -0.031250 -1.000000 0.000000 0.000000 0.027419 0.995973
-0.500000 0.690576 -0.031250 -1.000000 0.000000 0.000000 0.027419 0.988276
-0.500000 0.690576 0.031250 -1.000000 0.000000 0.000000 0.031195 0.988276
-0.500000 0.440576 0.031250 -1.000000 0.000000 0.000000 0.031207 0.996047
-0.500000 0.440576 -0.031250 -1.000000 0.000000 0.000000 0.027431 0.996047
-0.500000 0.315576 -0.031250 -1.000000 0.000000 0.000000 0.027431 0.988349
-0.500000 0.315576 0.031250 -1.000000 0.000000 0.000000 0.031207 0.988349
3 0 1 2
3 3 4 5
3 6 7 8
3 9 10 11
3 1 0 12
3 4 3 13
3 7 6 14
3 10 9 15
3 16 17 18
3 19 20 21
3 22 23 24
3 25 26 27
3 17 16 28
3 20 19 29
3 23 22 30
3 26 25 31
3 32 33 34
3 32 34 35
3 36 37 38
3 36 38 39
