ply
format ascii 1.0
comment Created by Blender 2.80 (sub 75) - www.blender.org, source file: ''
element vertex 38
property float x
property float y
property float z
property float nx
property float ny
property float nz
property float s
property float t
element face 32
property list uchar uint vertex_indices
end_header
0.000000 0.000000 0.000000 0.000000 -1.000000 0.000000 0.468812 0.531177
-0.265165 0.000000 0.265165 0.000000 -1.000000 0.000000 0.490423 0.552788
-0.375000 0.000000 0.000000 0.000000 -1.000000 0.000000 0.499375 0.531177
0.000000 0.000000 0.375000 -0.000000 -1.000000 0.000000 0.468812 0.561740
0.265165 0.000000 0.265165 0.000000 -1.000000 0.000000 0.447202 0.552788
0.375000 -0.000000 -0.000000 -0.000000 -1.000000 0.000000 0.438250 0.531177
0.265165 -0.000000 -0.265165 0.000000 -1.000000 0.000000 0.447202 0.509566
0.000000 -0.000000 -0.375000 -0.000000 -1.000000 0.000000 0.468812 0.500614
-0.265165 -0.000000 -0.265165 0.000000 -1.000000 0.000000 0.490423 0.509566
-0.375000 0.000000 0.000000 -0.776360 -0.630238 0.000000 0.375328 0.500477
-0.265165 1.000000 0.265165 -0.548967 0.630238 0.548967 0.390704 0.562191
-0.375000 1.000000 -0.000000 -0.776360 0.630238 0.000000 0.375328 0.562191
-0.265165 0.000000 0.265165 -0.548967 -0.630238 0.548967 0.390704 0.500477
0.000000 1.000000 0.375000 0.000000 0.630238 0.776360 0.406080 0.562191
0.000000 0.000000 0.375000 0.000000 -0.630238 0.776360 0.406080 0.500477
0.265165 1.000000 0.265165 0.548967 0.630238 0.548967 0.421456 0.562191
0.265165 0.000000 0.265165 0.548967 -0.630238 0.548967 0.421456 0.500477
0.375000 1.000000 -0.000000 0.776360 0.630238 0.000000 0.436832 0.562191
0.375000 -0.000000 -0.000000 0.776360 -0.630238 0.000000 0.436832 0.500477
0.375000 -0.000000 -0.000000 0.776360 -0.630238 0.000000 0.375252 0.500453
0.265165 1.000000 -0.265165 0.548967 0.630238 -0.548967 0.390635 0.562360
0.375000 1.000000 -0.000000 0.776360 0.630238 0.000000 0.375252 0.562360
0.265165 -0.000000 -0.265165 0.548967 -0.630238 -0.548967 0.390635 0.500453
0.000000 1.000000 -0.375000 0.000000 0.630238 -0.776360 0.406018 0.562360
0.000000 -0.000000 -0.375000 0.000000 -0.630238 -0.776360 0.406018 0.500453
-0.265165 1.000000 -0.265165 -0.548967 0.630238 -0.548967 0.421401 0.562360
-0.265165 -0.000000 -0.265165 -0.548967 -0.630238 -0.548967 0.421401 0.500453
-0.375000 1.000000 -0.000000 -0.776360 0.630238 0.000000 0.436784 0.562360
-0.375000 0.000000 0.000000 -0.776360 -0.630238 0.000000 0.436784 0.500453
0.000000 1.000000 -0.000000 -0.000000 1.000000 0.000000 0.468812 0.531177
-0.375000 1.000000 -0.000000 -0.000000 1.000000 0.000000 0.499375 0.531177
-0.265165 1.000000 0.265165 -0.000000 1.000000 0.000000 0.490423 0.552788
0.000000 1.000000 0.375000 0.000000 1.000000 0.000000 0.468812 0.561740
0.265165 1.000000 0.265165 0.000000 1.000000 0.000000 0.447202 0.552788
0.375000 1.000000 -0.000000 0.000000 1.000000 0.000000 0.438250 0.531177
0.265165 1.000000 -0.265165 0.000000 1.000000 -0.000000 0.447202 0.509566
0.000000 1.000000 -0.375000 0.000000 1.000000 -0.000000 0.468812 0.500614
-0.265165 1.000000 -0.265165 -0.000000 1.000000 0.000000 0.490423 0.509566
3 0 1 2
3 0 3 1
3 0 4 3
3 0 5 4
3 0 6 5
3 0 7 6
3 0 8 7
3 0 2 8
3 9 10 11
3 9 12 10
3 12 13 10
3 12 14 13
3 14 15 13
3 14 16 15
3 16 17 15
3 16 18 17
3 19 20 21
3 19 22 20
3 22 23 20
3 22 24 23
3 24 25 23
3 24 26 25
3 26 27 25
3 26 28 27
3 29 30 31
3 29 31 32
3 29 32 33
3 29 33 34
3 29 34 35
3 29 35 36
3 29 36 37
3 29 37 30
