ply
format ascii 1.0
comment Created by Blender 2.80 (sub 75) - www.blender.org, source file: ''
element vertex 24
property float x
property float y
property float z
property float nx
property float ny
property float nz
property float s
property float t
element face 12
property list uchar uint vertex_indices
end_header
0.500000 1.000000 -0.500000 -0.000000 1.000000 0.000000 0.312811 0.562935
-0.500000 1.000000 -0.500000 -0.000000 1.000000 0.000000 0.374742 0.562935
-0.500000 1.000000 0.500000 -0.000000 1.000000 0.000000 0.374742 0.624779
0.500000 1.000000 0.500000 0.000000 1.000000 -0.000000 0.312811 0.624779
0.500000 -0.000000 -0.375000 0.000000 -0.000000 -1.000000 0.250046 0.562629
-0.500000 -0.000000 -0.375000 0.000000 -0.000000 -1.000000 0.312401 0.562629
-0.500000 1.000000 -0.375000 0.000000 -0.000000 -1.000000 0.312401 0.624962
0.500000 1.000000 -0.375000 -0.000000 -0.000000 -1.000000 0.250046 0.624962
-0.375000 -0.000000 -0.500000 -1.000000 -0.000000 0.000000 0.250046 0.562629
-0.375000 0.000000 0.500000 -1.000000 -0.000000 0.000000 0.312401 0.562629
-0.375000 1.000000 0.500000 -1.000000 -0.000000 0.000000 0.312401 0.624962
-0.375000 1.000000 -0.500000 -1.000000 0.000000 0.000000 0.250046 0.624962
-0.500000 0.000000 0.375000 0.000000 0.000000 1.000000 0.250046 0.562629
0.500000 0.000000 0.375000 0.000000 0.000000 1.000000 0.312401 0.562629
0.500000 1.000000 0.375000 0.000000 0.000000 1.000000 0.312401 0.624962
-0.500000 1.000000 0.375000 -0.000000 0.000000 1.000000 0.250046 0.624962
0.375000 0.000000 0.500000 1.000000 0.000000 -0.000000 0.250046 0.562629
0.375000 -0.000000 -0.500000 1.000000 0.000000 -0.000000 0.312401 0.562629
0.375000 1.000000 -0.500000 1.000000 0.000000 -0.000000 0.312401 0.624962
0.375000 1.000000 0.500000 1.000000 0.000000 0.000000 0.250046 0.624962
0.500000 -0.000000 -0.500000 0.000000 -1.000000 0.000000 0.374742 0.562935
0.500000 0.000000 0.500000 0.000000 -1.000000 0.000000 0.374742 0.624779
-0.500000 0.000000 0.500000 0.000000 -1.000000 0.000000 0.312811 0.624779
-0.500000 -0.000000 -0.500000 0.000000 -1.000000 0.000000 0.312811 0.562935
3 0 1 2
3 2 3 0
3 4 5 6
3 6 7 4
3 8 9 10
3 10 11 8
3 12 13 14
3 14 15 12
3 16 17 18
3 18 19 16
3 20 21 22
3 22 23 20
