ply
format ascii 1.0
comment Created by Blender 2.80 (sub 75) - www.blender.org, source file: ''
element vertex 44
property float x
property float y
property float z
property float nx
property float ny
property float nz
property float s
property float t
element face 22
property list uchar uint vertex_indices
end_header
-0.500000 0.000000 0.500000 0.000000 -1.000000 0.000000 0.812500 0.812500
0.500000 -0.000000 -0.500000 0.000000 -1.000000 0.000000 0.750000 0.875000
0.500000 0.000000 0.500000 0.000000 -1.000000 0.000000 0.750000 0.812500
-0.500000 1.000000 0.500000 -0.000000 1.000000 -0.000000 0.750000 0.812500
0.500000 1.000000 -0.500000 -0.000000 1.000000 -0.000000 0.812500 0.875000
-0.500000 1.000000 -0.500000 -0.000000 1.000000 -0.000000 0.750000 0.875000
-0.500000 0.000000 0.500000 0.000000 0.000000 1.000000 0.750000 0.812500
0.500000 1.000000 0.500000 0.000000 0.000000 1.000000 0.812500 0.875000
-0.500000 1.000000 0.500000 0.000000 0.000000 1.000000 0.750000 0.875000
0.500000 0.000000 0.500000 1.000000 -0.000000 -0.000000 0.750000 0.812500
0.500000 1.000000 -0.500000 1.000000 -0.000000 -0.000000 0.812500 0.875000
0.500000 1.000000 0.500000 1.000000 -0.000000 -0.000000 0.750000 0.875000
-0.500000 -0.000000 -0.500000 -1.000000 0.000000 0.000000 0.750000 0.812500
-0.500000 1.000000 0.500000 -1.000000 0.000000 0.000000 0.812500 0.875000
-0.500000 1.000000 -0.500000 -1.000000 0.000000 0.000000 0.750000 0.875000
-0.375000 0.875000 -0.500000 0.000000 -1.000000 -0.000000 0.875000 0.875000
0.375000 0.875000 0.375000 0.000000 -1.000000 -0.000000 0.812500 0.812500
-0.375000 0.875000 0.375000 0.000000 -1.000000 -0.000000 0.875000 0.812500
0.375000 0.125000 0.375000 -1.000000 0.000000 0.000000 0.875000 0.812500
0.375000 0.875000 -0.500000 -1.000000 0.000000 0.000000 0.812500 0.875000
0.375000 0.125000 -0.500000 -1.000000 0.000000 0.000000 0.812500 0.812500
-0.375000 0.125000 0.375000 -0.000000 1.000000 -0.000000 0.812500 0.812500
0.375000 0.125000 -0.500000 -0.000000 1.000000 -0.000000 0.875000 0.875000
-0.375000 0.125000 -0.500000 -0.000000 1.000000 -0.000000 0.812500 0.875000
0.375000 0.875000 0.375000 -0.000000 -0.000000 -1.000000 0.812500 0.875000
-0.375000 0.125000 0.375000 -0.000000 -0.000000 -1.000000 0.875000 0.812500
-0.375000 0.875000 0.375000 -0.000000 -0.000000 -1.000000 0.875000 0.875000
-0.375000 0.875000 0.375000 1.000000 -0.000000 -0.000000 0.812500 0.875000
-0.375000 0.125000 -0.500000 1.000000 -0.000000 -0.000000 0.875000 0.812500
-0.375000 0.875000 -0.500000 1.000000 -0.000000 -0.000000 0.875000 0.875000
-0.500000 -0.000000 -0.500000 0.000000 -1.000000 0.000000 0.812500 0.875000
0.500000 1.000000 0.500000 0.000000 1.000000 0.000000 0.812500 0.812500
0.500000 0.000000 0.500000 0.000000 0.000000 1.000000 0.812500 0.812500
0.500000 -0.000000 -0.500000 1.000000 -0.000000 -0.000000 0.812500 0.812500
-0.500000 0.000000 0.500000 -1.000000 0.000000 0.000000 0.812500 0.812500
0.375000 0.875000 -0.500000 0.000000 -1.000000 0.000000 0.812500 0.875000
0.375000 0.875000 0.375000 -1.000000 0.000000 0.000000 0.875000 0.875000
0.375000 0.125000 0.375000 -0.000000 1.000000 -0.000000 0.875000 0.812500
0.375000 0.125000 0.375000 -0.000000 -0.000000 -1.000000 0.812500 0.812500
-0.375000 0.125000 0.375000 1.000000 -0.000000 -0.000000 0.812500 0.812500
-0.500000 1.000000 -0.500000 -0.000000 -0.000000 -1.000000 0.937500 0.875000
0.500000 1.000000 -0.500000 -0.000000 -0.000000 -1.000000 0.875000 0.875000
0.500000 -0.000000 -0.500000 -0.000000 -0.000000 -1.000000 0.875000 0.812500
-0.500000 -0.000000 -0.500000 -0.000000 -0.000000 -1.000000 0.937500 0.812500
3 0 1 2
3 3 4 5
3 6 7 8
3 9 10 11
3 12 13 14
3 15 16 17
3 18 19 20
3 21 22 23
3 24 25 26
3 27 28 29
3 1 0 30
3 4 3 31
3 7 6 32
3 10 9 33
3 13 12 34
3 16 15 35
3 19 18 36
3 22 21 37
3 25 24 38
3 28 27 39
3 40 41 42
3 40 42 43
