ply
format ascii 1.0
comment Created by Blender 2.80 (sub 75) - www.blender.org, source file: 'blocks.blend'
element vertex 24
property float x
property float y
property float z
property float nx
property float ny
property float nz
property float s
property float t
element face 12
property list uchar uint vertex_indices
end_header
0.031250 0.000000 -0.031300 0.000000 -1.000000 0.000000 0.003790 0.980606
0.031250 0.000000 0.031300 0.000000 -1.000000 0.000000 0.003790 0.984199
-0.031250 0.000000 0.031300 0.000000 -1.000000 0.000000 0.000165 0.984199
-0.031250 0.000000 -0.031300 0.000000 -1.000000 0.000000 0.000165 0.980606
0.031250 0.562500 -0.031300 -0.000000 1.000000 0.000000 0.000165 0.980606
-0.031250 0.562500 -0.031300 -0.000000 1.000000 0.000000 0.003790 0.980606
-0.031250 0.562500 0.031300 -0.000000 1.000000 0.000000 0.003790 0.984199
0.031250 0.562500 0.031300 0.000000 1.000000 -0.000000 0.000165 0.984199
0.031250 0.000000 -0.031300 0.000000 0.000000 -1.000000 0.000165 0.968825
-0.031250 0.000000 -0.031300 0.000000 0.000000 -1.000000 0.003790 0.968825
-0.031250 0.562500 -0.031300 0.000000 0.000000 -1.000000 0.003790 0.999949
0.031250 0.562500 -0.031300 0.000000 0.000000 -1.000000 0.000165 0.999949
-0.031250 0.000000 -0.031300 -1.000000 -0.000000 -0.000000 0.000165 0.968825
-0.031250 0.000000 0.031300 -1.000000 -0.000000 -0.000000 0.003790 0.968825
-0.031250 0.562500 0.031300 -1.000000 -0.000000 -0.000000 0.003790 0.999949
-0.031250 0.562500 -0.031300 -1.000000 0.000000 0.000000 0.000165 0.999949
-0.031250 0.000000 0.031300 0.000000 0.000000 1.000000 0.000165 0.968825
0.031250 0.000000 0.031300 0.000000 0.000000 1.000000 0.003790 0.968825
0.031250 0.562500 0.031300 0.000000 0.000000 1.000000 0.003790 0.999949
-0.031250 0.562500 0.031300 0.000000 0.000000 1.000000 0.000165 0.999949
0.031250 0.000000 0.031300 1.000000 0.000000 -0.000000 0.000165 0.968825
0.031250 0.000000 -0.031300 1.000000 0.000000 -0.000000 0.003790 0.968825
0.031250 0.562500 -0.031300 1.000000 0.000000 -0.000000 0.003790 0.999949
0.031250 0.562500 0.031300 1.000000 -0.000000 0.000000 0.000165 0.999949
3 0 1 2
3 2 3 0
3 4 5 6
3 6 7 4
3 8 9 10
3 10 11 8
3 12 13 14
3 14 15 12
3 16 17 18
3 18 19 16
3 20 21 22
3 22 23 20
