ply
format ascii 1.0
comment Created by Blender 2.80 (sub 75) - www.blender.org, source file: ''
element vertex 66
property float x
property float y
property float z
property float nx
property float ny
property float nz
property float s
property float t
element face 58
property list uchar uint vertex_indices
end_header
0.000000 0.575562 0.000000 0.000000 1.000000 0.000000 0.376425 0.624009
0.000000 0.505432 0.256243 0.000000 0.733696 0.679434 0.376425 0.608801
0.181191 0.505432 0.181191 0.480422 0.733696 0.480422 0.391618 0.608801
0.000000 0.575562 0.000000 0.000000 1.000000 0.000000 0.391618 0.624009
0.256243 0.505432 -0.000000 0.679434 0.733696 0.000000 0.406810 0.608801
0.000000 0.575562 0.000000 0.000000 1.000000 0.000000 0.406810 0.624009
0.181191 0.505432 -0.181191 0.480422 0.733696 -0.480422 0.422003 0.608801
0.000000 0.575562 0.000000 0.000000 1.000000 0.000000 0.422003 0.624009
0.000000 0.505432 -0.256243 0.000000 0.733696 -0.679434 0.437195 0.608801
0.000000 0.575562 0.000000 0.000000 1.000000 0.000000 0.436927 0.624009
0.000000 0.505432 -0.256243 0.000000 0.733696 -0.679434 0.436927 0.608801
-0.181191 0.505432 -0.181191 -0.480422 0.733696 -0.480422 0.421735 0.608801
0.000000 0.575562 0.000000 0.000000 1.000000 0.000000 0.421735 0.624009
-0.256243 0.505432 -0.000000 -0.679434 0.733696 0.000000 0.406543 0.608801
0.000000 0.575562 0.000000 0.000000 1.000000 0.000000 0.406543 0.624009
-0.181191 0.505432 0.181191 -0.480422 0.733696 0.480422 0.391350 0.608801
0.000000 0.575562 0.000000 0.000000 1.000000 0.000000 0.391350 0.624009
0.000000 0.505432 0.256243 0.000000 0.733696 0.679434 0.376158 0.608801
0.000000 0.279561 0.375017 0.000000 0.077639 0.996979 0.376425 0.593594
0.265177 0.279561 0.265177 0.704947 0.077639 0.704947 0.391618 0.593594
0.375017 0.279561 -0.000000 0.996979 0.077639 0.000000 0.406810 0.593594
0.265177 0.279561 -0.265177 0.704947 0.077639 -0.704947 0.422003 0.593594
0.000000 0.279561 -0.375017 0.000000 0.077639 -0.996979 0.437195 0.593594
0.000000 0.279561 -0.375017 0.000000 0.077639 -0.996979 0.436927 0.593594
-0.265177 0.279561 -0.265177 -0.704947 0.077639 -0.704947 0.421735 0.593594
-0.375017 0.279561 -0.000000 -0.996979 0.077639 0.000000 0.406543 0.593594
-0.265177 0.279561 0.265177 -0.704947 0.077639 0.704947 0.391350 0.593594
0.000000 0.279561 0.375017 0.000000 0.077639 0.996979 0.376158 0.593594
0.000000 0.035577 0.295629 0.000000 -0.711753 0.702384 0.376425 0.578386
0.209041 0.035577 0.209041 0.496658 -0.711753 0.496658 0.391618 0.578386
0.295629 0.035577 -0.000000 0.702384 -0.711753 0.000000 0.406810 0.578386
0.209041 0.035577 -0.209041 0.496658 -0.711753 -0.496658 0.422003 0.578386
0.000000 0.035577 -0.295629 0.000000 -0.711753 -0.702384 0.437195 0.578386
0.000000 0.035577 -0.295629 0.000000 -0.711753 -0.702384 0.436927 0.578386
-0.209041 0.035577 -0.209041 -0.496658 -0.711753 -0.496658 0.421735 0.578386
-0.295629 0.035577 -0.000000 -0.702384 -0.711753 0.000000 0.406543 0.578386
-0.209041 0.035577 0.209041 -0.496658 -0.711753 0.496658 0.391350 0.578386
0.000000 0.035577 0.295629 0.000000 -0.711753 0.702384 0.376158 0.578386
0.000000 0.000000 0.000000 0.000000 -1.000000 0.000000 0.376425 0.563179
0.000000 0.000000 0.000000 0.000000 -1.000000 0.000000 0.391618 0.563179
0.000000 0.000000 0.000000 0.000000 -1.000000 0.000000 0.406810 0.563179
0.000000 0.000000 0.000000 0.000000 -1.000000 0.000000 0.422003 0.563179
0.000000 0.000000 0.000000 0.000000 -1.000000 0.000000 0.436927 0.563179
0.000000 0.000000 0.000000 0.000000 -1.000000 0.000000 0.421735 0.563179
0.000000 0.000000 0.000000 0.000000 -1.000000 0.000000 0.406543 0.563179
0.000000 0.000000 0.000000 0.000000 -1.000000 0.000000 0.391350 0.563179
0.015050 0.631430 -0.049530 0.000000 0.929971 -0.367632 0.408812 0.621290
-0.017081 0.631430 -0.049530 0.000000 0.929971 -0.367632 0.411130 0.621290
-0.017081 0.643242 -0.019650 0.000000 0.929971 -0.367632 0.411130 0.622724
0.015050 0.643242 -0.019650 0.000000 0.929971 -0.367632 0.408812 0.622724
0.023598 0.536726 -0.021285 0.000000 -0.285809 -0.958287 0.408195 0.621290
-0.025629 0.536726 -0.021285 0.000000 -0.285809 -0.958287 0.411746 0.621290
-0.017081 0.631430 -0.049530 0.000000 -0.285809 -0.958287 0.411130 0.624448
0.015050 0.631430 -0.049530 -0.000000 -0.285809 -0.958287 0.408812 0.624448
-0.025629 0.536726 -0.021285 -0.996252 0.080445 -0.031801 0.409550 0.621290
-0.025629 0.554824 0.024496 -0.996252 0.080445 -0.031801 0.411746 0.621894
-0.017081 0.643242 -0.019650 -0.996252 0.080445 -0.031801 0.409628 0.624842
-0.017081 0.631430 -0.049530 -0.996252 0.080445 -0.031801 0.408195 0.624448
-0.025629 0.554824 0.024496 0.000000 0.446698 0.894685 0.411746 0.621894
0.023598 0.554824 0.024496 0.000000 0.446698 0.894685 0.408195 0.621894
0.015050 0.643242 -0.019650 0.000000 0.446698 0.894685 0.408812 0.624842
-0.017081 0.643242 -0.019650 -0.000000 0.446698 0.894685 0.411130 0.624842
0.023598 0.554824 0.024496 0.996252 0.080445 -0.031801 0.411746 0.621894
0.023598 0.536726 -0.021285 0.996252 0.080445 -0.031801 0.409550 0.621290
0.015050 0.631430 -0.049530 0.996252 0.080445 -0.031801 0.408195 0.624448
0.015050 0.643242 -0.019650 0.996252 0.080445 -0.031801 0.409628 0.624842
3 0 1 2
3 3 2 4
3 5 4 6
3 7 6 8
3 9 10 11
3 12 11 13
3 14 13 15
3 16 15 17
3 1 18 19
3 1 19 2
3 2 19 20
3 2 20 4
3 4 20 21
3 4 21 6
3 6 21 22
3 6 22 8
3 10 23 24
3 10 24 11
3 11 24 25
3 11 25 13
3 13 25 26
3 13 26 15
3 15 26 27
3 15 27 17
3 18 28 29
3 18 29 19
3 19 29 30
3 19 30 20
3 20 30 31
3 20 31 21
3 21 31 32
3 21 32 22
3 23 33 34
3 23 34 24
3 24 34 35
3 24 35 25
3 25 35 36
3 25 36 26
3 26 36 37
3 26 37 27
3 38 29 28
3 39 30 29
3 40 31 30
3 41 32 31
3 42 34 33
3 43 35 34
3 44 36 35
3 45 37 36
3 46 47 48
3 48 49 46
3 50 51 52
3 52 53 50
3 54 55 56
3 56 57 54
3 58 59 60
3 60 61 58
3 62 63 64
3 64 65 62
