ply
format ascii 1.0
comment Created by Blender 2.80 (sub 75) - www.blender.org, source file: 'blocks.blend'
element vertex 42
property float x
property float y
property float z
property float nx
property float ny
property float nz
property float s
property float t
element face 24
property list uchar uint vertex_indices
end_header
0.500000 -0.000000 0.500000 -0.000000 -1.000000 0.000000 0.000023 0.937584
-0.500000 0.000000 -0.500000 -0.000000 -1.000000 0.000000 0.062446 0.999990
0.500000 -0.000000 -0.500000 -0.000000 -1.000000 0.000000 0.000023 0.999990
-0.500000 0.000000 0.500000 -0.000000 -1.000000 0.000000 0.062446 0.937584
0.500000 1.000000 0.000000 0.000000 0.000000 -1.000000 0.000016 0.999990
0.000000 0.500000 -0.000000 0.000000 0.000000 -1.000000 0.031227 0.968787
0.000000 1.000000 -0.000000 0.000000 0.000000 -1.000000 0.031227 0.999990
0.500000 0.500000 -0.000000 0.000000 0.000000 -1.000000 0.000016 0.968787
-0.500000 1.000000 0.500000 0.000000 0.000000 1.000000 0.000023 0.999990
0.500000 -0.000000 0.500000 0.000000 0.000000 1.000000 0.062446 0.937584
0.500000 1.000000 0.500000 0.000000 0.000000 1.000000 0.062446 0.999990
-0.500000 0.000000 0.500000 -0.000000 0.000000 1.000000 0.000023 0.937584
0.000000 1.000000 -0.500000 1.000000 -0.000000 0.000000 0.062446 0.999990
0.000000 0.500000 -0.000000 1.000000 -0.000000 0.000000 0.031234 0.968787
0.000000 0.500000 -0.500000 1.000000 -0.000000 0.000000 0.062446 0.968787
0.000000 1.000000 -0.000000 1.000000 -0.000000 0.000000 0.031234 0.999990
-0.500000 1.000000 -0.500000 -1.000000 0.000000 0.000000 0.000023 0.999990
-0.500000 0.000000 0.500000 -1.000000 0.000000 0.000000 0.062446 0.937584
-0.500000 1.000000 0.500000 -1.000000 0.000000 0.000000 0.062446 0.999990
-0.500000 0.000000 -0.500000 -1.000000 0.000000 0.000000 0.000023 0.937584
0.000000 0.500000 -0.500000 0.000000 1.000000 0.000000 0.031234 0.937584
0.500000 0.500000 -0.000000 0.000000 1.000000 0.000000 0.000023 0.968787
0.500000 0.500000 -0.500000 0.000000 1.000000 0.000000 0.000023 0.937584
0.000000 0.500000 -0.000000 0.000000 1.000000 0.000000 0.031234 0.968787
-0.500000 1.000000 -0.500000 0.000000 1.000000 0.000000 0.062447 0.937584
0.000000 1.000000 -0.000000 0.000000 1.000000 0.000000 0.031235 0.968787
0.000000 1.000000 -0.500000 0.000000 1.000000 0.000000 0.031235 0.937584
-0.500000 1.000000 0.500000 0.000000 1.000000 0.000000 0.062447 0.999990
0.500000 1.000000 0.500000 0.000000 1.000000 0.000000 0.000023 0.999990
0.500000 1.000000 0.000000 0.000000 1.000000 -0.000000 0.000023 0.968787
0.500000 1.000000 0.000000 1.000000 -0.000000 -0.000000 0.031234 0.999990
0.500000 1.000000 0.500000 1.000000 -0.000000 -0.000000 0.000023 0.999990
0.500000 0.500000 -0.000000 1.000000 -0.000000 -0.000000 0.031234 0.968787
0.500000 -0.000000 0.500000 1.000000 -0.000000 -0.000000 0.000023 0.937584
0.500000 0.500000 -0.500000 1.000000 0.000000 0.000000 0.062446 0.968787
0.500000 -0.000000 -0.500000 1.000000 0.000000 0.000000 0.062446 0.937584
0.000000 0.500000 -0.500000 0.000000 0.000000 -1.000000 0.031234 0.968787
-0.500000 1.000000 -0.500000 0.000000 0.000000 -1.000000 0.062446 0.999990
0.000000 1.000000 -0.500000 0.000000 0.000000 -1.000000 0.031234 0.999990
-0.500000 0.000000 -0.500000 -0.000000 0.000000 -1.000000 0.062446 0.937584
0.500000 0.500000 -0.500000 0.000000 0.000000 -1.000000 0.000023 0.968787
0.500000 -0.000000 -0.500000 0.000000 0.000000 -1.000000 0.000023 0.937584
3 0 1 2
3 1 0 3
3 4 5 6
3 5 4 7
3 8 9 10
3 9 8 11
3 12 13 14
3 13 12 15
3 16 17 18
3 17 16 19
3 20 21 22
3 21 20 23
3 24 25 26
3 24 27 25
3 28 25 27
3 25 28 29
3 30 31 32
3 31 33 32
3 34 32 35
3 32 33 35
3 36 37 38
3 39 37 36
3 40 41 36
3 36 41 39
